<mxfile host="app.diagrams.net" modified="2024-03-12T22:51:19.498Z" agent="Mozilla/5.0 (Windows NT 10.0; Win64; x64) AppleWebKit/537.36 (KHTML, like Gecko) Chrome/122.0.0.0 Safari/537.36" version="24.0.5" etag="WZi_76s7ATJfXo0F21l5" type="github">
  <diagram name="PÃ¡gina-1" id="pGH-4fQFsbXf6AkGIpEF">
    <mxGraphModel>
      <root>
        <mxCell id="0" />
        <mxCell id="1" parent="0" />
      </root>
    </mxGraphModel>
  </diagram>
</mxfile>
